<svg width="265" height="215" viewBox="0 0 265 215" fill="none" xmlns="http://www.w3.org/2000/svg">
<path d="M177.371 16.0132L182.456 21.5553L159.44 40.9723L156.05 37.2776L177.371 16.0132Z" fill="#FF5959"/>
<path fill-rule="evenodd" clip-rule="evenodd" d="M1.83649 83.8602C0.822224 73.5718 8.34039 64.4092 18.6288 63.395L130.401 52.376C140.69 51.3618 149.852 58.8799 150.867 69.1683L156.395 125.241C155.781 125.178 155.152 125.176 154.514 125.238L96.7641 130.932L95.8458 121.617C95.3387 116.473 90.7574 112.714 85.6132 113.221C80.469 113.728 76.7099 118.309 77.2171 123.454L79.0536 142.082C79.4973 146.584 83.0607 150.025 87.391 150.474C87.7369 150.51 88.0876 150.527 88.442 150.524C88.7215 150.522 89.0034 150.507 89.2869 150.479L139.587 145.52C147.957 145.636 157.82 150.307 160.049 162.312L158.212 143.683L156.434 143.859C157.042 143.793 157.631 143.671 158.194 143.497L161.886 180.941C162.9 191.229 155.382 200.392 145.093 201.406L33.3207 212.425C23.0323 213.439 13.8697 205.921 12.8554 195.633L1.83649 83.8602ZM156.376 125.054L137.747 126.891C149.754 124.662 154.424 114.797 154.54 106.426L156.376 125.054ZM96.7641 130.931L106.079 130.013C99.8689 130.625 96.6694 124.671 95.8459 121.617L96.7641 130.931Z" fill="#FF5959"/>
<path fill-rule="evenodd" clip-rule="evenodd" d="M106.78 129.795L106.78 129.795C107.671 130.028 108.648 130.116 109.712 130.011L141.395 126.889C148.574 125.557 153.131 121.498 155.661 116.66C153.131 121.498 148.574 125.557 141.395 126.889L109.713 130.011C108.648 130.116 107.671 130.028 106.78 129.795ZM104.691 145.553L106.286 133.527C107.449 133.783 108.714 133.871 110.08 133.737L141.921 130.599L142.079 130.57C156.355 127.921 161.808 116.058 161.94 106.477L161.942 106.267L158.247 68.8038C157.03 56.4587 146.03 47.4376 133.678 48.6546L119.203 50.0809C123.024 44.2499 129.964 40.7947 137.34 41.7715L248.729 56.523C258.982 57.8808 266.193 67.2891 264.834 77.537L261.143 105.378C259.12 113.5 252.321 122.035 240.121 121.467L189.994 114.829C184.868 114.15 180.161 117.754 179.482 122.878C178.803 128.002 182.408 132.706 187.535 133.385L237.661 140.023C245.787 142.043 254.33 148.837 253.766 161.03L250.075 188.87C248.717 199.118 239.304 206.324 229.05 204.967L164.732 196.449C168.088 192.082 169.854 186.48 169.271 180.568L167.418 161.781L167.389 161.624C164.739 147.355 152.87 141.905 143.284 141.773L143.074 141.771L104.691 145.553ZM160.294 195.861L160.294 195.861C160.754 195.39 161.188 194.896 161.596 194.381C161.188 194.896 160.754 195.391 160.294 195.861ZM258.685 123.926L257.55 123.776C257.934 123.827 258.309 123.9 258.675 123.995L258.685 123.926ZM256.234 142.413L256.225 142.481L255.113 142.334C255.489 142.383 255.863 142.409 256.234 142.413ZM163.706 162.308L163.706 162.307L163.706 162.308L163.706 162.308Z" fill="#80BAFF"/>
<path d="M156.934 0L164.016 2.53366L152.701 30.4393L147.979 28.7501L156.934 0Z" fill="#FF5959"/>
<path d="M132.906 4.32837L140.353 3.27L143.345 33.2332L138.381 33.9388L132.906 4.32837Z" fill="#FF5959"/>
<path d="M55.9182 198.565L54.1827 179.495C54.0991 178.576 53.2862 177.899 52.3671 177.982L25.9993 180.382C25.0802 180.466 24.403 181.278 24.4866 182.198L26.2221 201.268C26.3058 202.187 27.1187 202.864 28.0377 202.78L54.4055 200.381C55.3246 200.297 56.0019 199.484 55.9182 198.565Z" fill="#EEC85F"/>
<path fill-rule="evenodd" clip-rule="evenodd" d="M45.7198 201.084L43.582 178.86L44.557 178.776L46.6948 201L45.7198 201.084Z" fill="#DE7517"/>
<path fill-rule="evenodd" clip-rule="evenodd" d="M35.7891 202.122L33.7227 179.588L34.6652 179.502L36.7317 202.036L35.7891 202.122Z" fill="#DE7517"/>
<path fill-rule="evenodd" clip-rule="evenodd" d="M54.7868 185.794L45.0138 186.662L44.9297 185.766L54.7027 184.898L54.7868 185.794Z" fill="#DE7517"/>
<path fill-rule="evenodd" clip-rule="evenodd" d="M55.516 193.215L45.4344 194.236L45.3477 193.182L55.4292 192.161L55.516 193.215Z" fill="#DE7517"/>
<path fill-rule="evenodd" clip-rule="evenodd" d="M34.9691 187.557L24.8874 188.426L24.8008 187.53L34.8826 186.662L34.9691 187.557Z" fill="#DE7517"/>
<path fill-rule="evenodd" clip-rule="evenodd" d="M35.486 194.985L25.712 196L25.6289 194.94L35.4029 193.925L35.486 194.985Z" fill="#DE7517"/>
<path d="M158.176 67.3889L264.109 83.4921L261.797 100.18L160.034 86.0761L158.176 67.3889Z" fill="#252542"/>
</svg>
